<?xml version="1.0" encoding="UTF-8" standalone="no"?>
<svg
   version="1.0"
   width="32pt"
   height="10.666674pt"
   viewBox="0 0 32 10.666674"
   preserveAspectRatio="xMidYMid"
   id="svg14"
   sodipodi:docname="LOGO-FI-BRUTO-BLACK.svg"
   inkscape:version="1.3.2 (091e20e, 2023-11-25)"
   xmlns:inkscape="http://www.inkscape.org/namespaces/inkscape"
   xmlns:sodipodi="http://sodipodi.sourceforge.net/DTD/sodipodi-0.dtd"
   xmlns="http://www.w3.org/2000/svg"
   xmlns:svg="http://www.w3.org/2000/svg">
  <defs
     id="defs14" />
  <sodipodi:namedview
     id="namedview14"
     pagecolor="#505050"
     bordercolor="#eeeeee"
     borderopacity="1"
     inkscape:showpageshadow="0"
     inkscape:pageopacity="0"
     inkscape:pagecheckerboard="0"
     inkscape:deskcolor="#505050"
     inkscape:document-units="pt"
     inkscape:zoom="7.8871652"
     inkscape:cx="18.130722"
     inkscape:cy="28.210389"
     inkscape:window-width="1392"
     inkscape:window-height="1212"
     inkscape:window-x="1080"
     inkscape:window-y="25"
     inkscape:window-maximized="0"
     inkscape:current-layer="svg14" />
  <g
     transform="matrix(8.2051282e-4,0,0,-8.2051282e-4,0,10.666673)"
     fill="#000000"
     stroke="none"
     id="g14">
    <path
       d="m 1005,12980 c -170,-35 -304,-91 -447,-186 -270,-180 -453,-448 -531,-779 L 6,11925 3,9468 0,7010 h 500 500 v 1026 c 0,900 2,1034 16,1087 44,170 158,294 332,360 57,22 57,22 1105,25 l 1047,3 v 499 500 H 2462 c -1144,0 -1081,-3 -1205,63 -69,36 -166,137 -203,209 -46,91 -54,157 -54,482 0,239 3,310 16,359 44,170 158,294 332,360 57,22 57,22 1105,25 l 1047,3 v 494 495 l -1202,-1 c -1128,-1 -1209,-2 -1293,-19 z"
       id="path1" />
    <path
       d="M 4500,10005 V 7010 h 500 500 v 1251 1250 l 548,-3 c 530,-4 549,-4 604,-25 173,-65 288,-190 332,-360 14,-53 16,-187 16,-1087 V 7010 h 500 500 v 1153 c 0,746 -4,1182 -11,1237 -26,212 -93,388 -222,580 -16,25 -16,27 17,76 51,76 122,219 150,304 61,185 61,185 61,895 0,585 -2,659 -18,738 -92,450 -409,808 -842,950 -179,59 -141,57 -1441,57 H 4500 Z m 2151,1977 c 128,-42 226,-125 288,-241 54,-102 61,-154 61,-481 0,-321 -8,-387 -54,-478 -37,-72 -134,-173 -203,-209 -119,-64 -113,-63 -705,-63 h -538 v 751 750 l 543,-3 c 529,-4 544,-4 608,-26 z"
       id="path2" />
    <path
       d="m 10005,12980 c -170,-35 -304,-91 -447,-186 -270,-180 -453,-448 -531,-779 -21,-90 -21,-96 -25,-1945 -2,-1299 0,-1884 8,-1952 59,-516 421,-934 930,-1072 l 115,-31 h 695 695 l 110,29 c 224,58 396,153 559,307 199,189 318,403 371,664 14,72 15,268 12,1995 -3,1910 -3,1915 -24,2005 -78,331 -261,599 -530,779 -107,71 -186,109 -308,149 -171,56 -192,57 -894,56 -587,-1 -654,-2 -736,-19 z m 1146,-998 c 128,-42 234,-134 296,-255 54,-108 53,-57 53,-1722 0,-1668 1,-1614 -54,-1723 -59,-116 -194,-225 -320,-258 -73,-20 -679,-20 -752,0 -178,47 -330,209 -364,386 -6,34 -10,605 -10,1594 0,1655 -1,1616 51,1717 77,154 211,253 379,279 30,5 190,7 355,6 277,-2 305,-4 366,-24 z"
       id="path3" />
    <path
       d="m 14526,12984 c -483,-87 -878,-467 -991,-951 -33,-143 -35,-277 -35,-2650 V 7010 h 500 500 l 2,2293 3,2292 22,65 c 54,158 185,281 354,332 33,10 129,13 374,13 288,0 337,-2 386,-18 166,-52 296,-185 341,-346 17,-63 18,-167 18,-2348 V 7010 h 500 500 l 2,2293 3,2292 22,65 c 54,158 185,281 354,332 33,10 129,13 374,13 288,0 337,-2 386,-18 166,-52 296,-185 341,-346 17,-63 18,-167 18,-2348 V 7010 h 500 500 v 2428 c 0,2669 3,2514 -61,2706 -146,437 -520,763 -963,841 -78,13 -320,15 -1980,14 -1592,-1 -1904,-3 -1970,-15 z"
       id="path4" />
    <path
       d="M 6500,3010 V 9 l 1223,3 1222,3 115,31 c 509,138 871,556 930,1072 8,68 10,653 8,1952 -4,1849 -4,1855 -25,1945 -78,331 -261,599 -531,779 -142,95 -270,148 -452,188 -93,21 -119,22 -1292,25 l -1198,4 z m 2152,1973 c 173,-65 288,-190 332,-360 14,-54 16,-235 16,-1615 0,-1481 -1,-1558 -19,-1625 -45,-174 -174,-305 -350,-357 -47,-14 -129,-16 -593,-16 h -538 v 2001 2000 l 548,-3 c 530,-4 549,-4 604,-25 z"
       id="path5" />
    <path
       d="m 11007,6003 c -12,-11 -8,-4799 4,-4893 38,-313 183,-586 421,-795 126,-110 258,-186 421,-240 195,-65 218,-66 942,-63 l 650,4 115,30 c 504,136 867,551 930,1064 7,56 10,886 10,2487 v 2403 h -500 -500 V 3733 c 0,-2459 2,-2340 -54,-2451 -59,-116 -194,-225 -320,-258 -73,-20 -679,-20 -752,0 -126,33 -261,142 -320,258 -56,111 -54,-8 -54,2456 v 2272 h -493 c -272,0 -497,-3 -500,-7 z"
       id="path6" />
    <path
       d="m 16650,6000 c -291,-24 -565,-148 -769,-348 -180,-177 -296,-385 -354,-637 -19,-85 -21,-127 -24,-695 -3,-406 -1,-637 7,-702 60,-517 424,-937 930,-1071 l 115,-31 515,-6 c 494,-6 518,-7 581,-28 127,-42 226,-125 288,-241 54,-102 61,-154 61,-481 0,-321 -8,-387 -54,-478 -37,-72 -134,-173 -203,-209 -124,-66 -61,-63 -1205,-63 H 15500 V 510 9 l 1223,3 1222,3 115,31 c 509,138 870,555 930,1072 8,65 10,296 7,702 -3,568 -5,610 -24,695 -101,439 -403,779 -818,922 -183,62 -298,73 -831,73 -440,0 -451,1 -567,63 -69,36 -166,137 -203,209 -46,91 -54,157 -54,478 0,327 7,379 61,481 62,116 160,198 288,241 l 66,23 1043,3 1042,3 v 499 500 l -1132,-1 c -623,-1 -1171,-5 -1218,-9 z"
       id="path7" />
    <path
       d="m 20000,5511 v -499 l 418,-4 c 398,-4 420,-5 483,-26 166,-55 290,-188 334,-359 13,-50 15,-348 15,-2335 V 10 h 500 500 v 2278 c 0,1987 2,2285 15,2335 44,171 168,304 334,359 63,21 85,22 484,26 l 417,4 v 499 499 h -1750 -1750 z"
       id="path8" />
    <path
       d="M 24500,3011 V 10 h 500 500 v 1251 1250 l 548,-3 c 530,-4 549,-4 604,-25 173,-65 288,-190 332,-360 14,-53 16,-187 16,-1087 V 10 h 500 500 v 1153 c 0,746 -4,1182 -11,1237 -26,212 -93,388 -222,580 -16,25 -16,27 17,76 51,76 122,219 150,304 61,185 61,185 61,895 0,585 -2,659 -18,738 -67,330 -259,617 -535,801 -142,95 -270,148 -452,188 -93,21 -119,22 -1292,25 l -1198,4 z m 2151,1971 c 128,-42 226,-125 288,-241 54,-102 61,-154 61,-481 0,-321 -8,-387 -54,-478 -37,-72 -134,-173 -203,-209 -119,-64 -113,-63 -705,-63 h -538 v 751 750 l 543,-3 c 529,-4 544,-4 608,-26 z"
       id="path9" />
    <path
       d="M 29000,3010 V 10 h 500 500 v 3000 3000 h -500 -500 z"
       id="path10" />
    <path
       d="m 32150,6000 c -291,-24 -565,-148 -769,-348 -180,-177 -294,-382 -354,-637 -21,-90 -21,-96 -25,-1945 -2,-1299 0,-1884 8,-1952 59,-516 421,-934 930,-1072 l 115,-31 1223,-3 1222,-3 v 501 500 h -1038 c -921,0 -1044,2 -1093,16 -176,52 -305,183 -350,357 -17,61 -19,110 -19,371 0,334 7,384 61,487 62,116 160,198 288,241 l 66,23 1043,3 1042,3 v 499 500 h -1038 c -1144,0 -1081,-3 -1205,63 -69,36 -166,137 -203,209 -46,91 -54,157 -54,482 0,239 3,310 16,359 44,170 158,294 332,360 57,22 57,22 1105,25 l 1047,3 v 499 500 l -1132,-1 c -623,-1 -1171,-5 -1218,-9 z"
       id="path11" />
    <path
       d="m 36650,6000 c -291,-24 -565,-148 -769,-348 -180,-177 -296,-385 -354,-637 -19,-85 -21,-127 -24,-695 -3,-406 -1,-637 7,-702 60,-517 424,-937 930,-1071 l 115,-31 515,-6 c 494,-6 518,-7 581,-28 127,-42 226,-125 288,-241 54,-102 61,-154 61,-481 0,-321 -8,-387 -54,-478 -37,-72 -134,-173 -203,-209 -124,-66 -61,-63 -1205,-63 H 35500 V 510 9 l 1223,3 1222,3 115,31 c 509,138 870,555 930,1072 8,65 10,296 7,702 -3,568 -5,610 -24,695 -101,439 -403,779 -818,922 -183,62 -298,73 -831,73 -440,0 -451,1 -567,63 -69,36 -166,137 -203,209 -46,91 -54,157 -54,478 0,327 7,379 61,481 62,116 160,198 288,241 l 66,23 1043,3 1042,3 v 499 500 l -1132,-1 c -623,-1 -1171,-5 -1218,-9 z"
       id="path12" />
    <path
       d="M 0,2995 V 0 h 500 500 V 2995 5990 H 500 0 Z"
       id="path13" />
    <path
       d="m 3035,5974 c -545,-98 -957,-535 -1025,-1084 -7,-56 -10,-886 -10,-2487 V 0 h 500 500 v 2268 c 0,2458 -2,2339 54,2450 59,116 194,225 320,258 73,20 679,20 752,0 126,-33 261,-142 320,-258 56,-111 54,8 54,-2450 V 0 h 500 500 v 2403 c 0,1601 -3,2431 -10,2487 -68,553 -484,989 -1034,1085 -126,21 -1299,21 -1421,-1 z"
       id="path14" />
  </g>
</svg>
