<?xml version="1.0" encoding="UTF-8"?>
<svg xmlns="http://www.w3.org/2000/svg" xmlns:xlink="http://www.w3.org/1999/xlink" width="29px" height="32px" viewBox="0 0 29 31" version="1.1">
<g id="surface1">
<path style=" stroke:none;fill-rule:nonzero;fill:#000;fill-opacity:1;" d="M 6.269531 -0.0078125 C 6.347656 -0.0078125 6.347656 -0.0078125 6.425781 -0.0078125 C 6.601562 -0.0078125 6.773438 -0.0078125 6.949219 -0.0078125 C 7.074219 -0.00390625 7.199219 -0.00390625 7.324219 -0.0078125 C 7.628906 -0.0078125 7.933594 -0.00390625 8.238281 -0.00390625 C 8.59375 -0.00390625 8.949219 -0.00390625 9.304688 -0.00390625 C 9.9375 -0.00390625 10.566406 -0.00390625 11.199219 -0.00390625 C 11.8125 -0.00390625 12.429688 -0.00390625 13.042969 -0.00390625 C 13.082031 -0.00390625 13.117188 -0.00390625 13.15625 -0.00390625 C 13.347656 -0.00390625 13.539062 -0.00390625 13.726562 -0.00390625 C 15.304688 -0.00390625 16.878906 0 18.453125 0 C 18.453125 1.703125 18.453125 3.410156 18.453125 5.167969 C 17.703125 5.167969 16.949219 5.171875 16.171875 5.175781 C 15.695312 5.175781 15.21875 5.179688 14.738281 5.179688 C 13.980469 5.183594 13.222656 5.1875 12.464844 5.1875 C 11.914062 5.191406 11.363281 5.191406 10.8125 5.195312 C 10.519531 5.195312 10.226562 5.195312 9.933594 5.199219 C 9.660156 5.199219 9.382812 5.199219 9.109375 5.199219 C 9.007812 5.203125 8.90625 5.203125 8.808594 5.203125 C 7.789062 5.203125 6.828125 5.25 6.0625 5.992188 C 5.308594 6.851562 5.308594 7.789062 5.3125 8.867188 C 5.3125 9.042969 5.3125 9.214844 5.3125 9.390625 C 5.308594 10.429688 5.351562 11.335938 6.105469 12.140625 C 6.734375 12.722656 7.53125 12.871094 8.367188 12.875 C 8.410156 12.875 8.453125 12.875 8.5 12.875 C 8.640625 12.875 8.785156 12.875 8.929688 12.875 C 9.035156 12.875 9.140625 12.875 9.242188 12.878906 C 9.523438 12.878906 9.804688 12.878906 10.085938 12.878906 C 10.382812 12.882812 10.675781 12.882812 10.96875 12.882812 C 11.527344 12.886719 12.082031 12.890625 12.640625 12.890625 C 13.394531 12.894531 14.144531 12.898438 14.898438 12.902344 C 16.082031 12.90625 17.269531 12.910156 18.453125 12.917969 C 18.453125 14.621094 18.453125 16.328125 18.453125 18.082031 C 17.703125 18.085938 16.949219 18.089844 16.171875 18.089844 C 15.695312 18.09375 15.21875 18.09375 14.738281 18.097656 C 13.980469 18.101562 13.222656 18.101562 12.464844 18.105469 C 11.914062 18.105469 11.363281 18.109375 10.8125 18.113281 C 10.519531 18.113281 10.226562 18.113281 9.933594 18.113281 C 9.660156 18.113281 9.382812 18.117188 9.109375 18.117188 C 9.007812 18.117188 8.90625 18.117188 8.808594 18.117188 C 7.789062 18.121094 6.828125 18.167969 6.0625 18.910156 C 5.332031 19.738281 5.308594 20.648438 5.308594 21.691406 C 5.308594 21.792969 5.308594 21.894531 5.308594 21.996094 C 5.304688 22.273438 5.304688 22.546875 5.304688 22.820312 C 5.304688 23.109375 5.300781 23.398438 5.300781 23.683594 C 5.296875 24.230469 5.296875 24.773438 5.292969 25.316406 C 5.292969 26.054688 5.289062 26.789062 5.285156 27.523438 C 5.28125 28.683594 5.277344 29.839844 5.273438 31 C 3.53125 31 1.792969 31 0 31 C -0.00390625 26.167969 -0.00390625 26.167969 -0.0078125 23.78125 C -0.0078125 23.742188 -0.0078125 23.707031 -0.0078125 23.671875 C -0.0078125 22.898438 -0.0078125 22.121094 -0.0078125 21.347656 C -0.0078125 20.96875 -0.0078125 20.585938 -0.0078125 20.207031 C -0.0078125 20.167969 -0.0078125 20.132812 -0.0078125 20.09375 C -0.0078125 18.867188 -0.0117188 17.644531 -0.0117188 16.417969 C -0.0117188 15.160156 -0.015625 13.902344 -0.015625 12.640625 C -0.015625 12.464844 -0.015625 12.285156 -0.015625 12.109375 C -0.015625 12.074219 -0.015625 12.039062 -0.015625 12 C -0.015625 11.4375 -0.015625 10.875 -0.015625 10.3125 C -0.0195312 9.746094 -0.0195312 9.179688 -0.0195312 8.613281 C -0.0195312 8.304688 -0.0195312 8 -0.0195312 7.691406 C -0.0195312 7.410156 -0.0195312 7.128906 -0.0195312 6.847656 C -0.0195312 6.75 -0.0195312 6.648438 -0.0195312 6.546875 C -0.0273438 4.699219 0.652344 3.117188 1.957031 1.78125 C 2.921875 0.859375 4.113281 0.300781 5.429688 0.0507812 C 5.476562 0.0429688 5.519531 0.0351562 5.566406 0.0234375 C 5.800781 -0.0078125 6.03125 -0.0078125 6.269531 -0.0078125 Z M 6.269531 -0.0078125 "/>
<path style=" stroke:none;fill-rule:nonzero;fill:#000;fill-opacity:1;" d="M 23.726562 0 C 25.46875 0 27.207031 0 29 0 C 29 10.230469 29 20.460938 29 31 C 27.261719 31 25.519531 31 23.726562 31 C 23.726562 20.769531 23.726562 10.539062 23.726562 0 Z M 23.726562 0 "/>
</g>
</svg>
